# xmcd
#
# Track frame offsets: 
#        150
#        29456
#        51565
#        72745
#        97747
#        116745
#        155650
#        177631
#        198685
#        222056
#        241280
#
# Disc length: 3491 seconds
#
# Revision: 2
# Processed by: cddbd v1.5.2PL0 Copyright (c) Steve Scherf et al.
# Submitted via: ExactAudioCopy v0.99pb4
#
DISCID=a90da10b
DTITLE=Africando - Ketukuba
DYEAR=2006
DGENRE=Salsa
TTITLE0=Bogne Sirala
TTITLE1=Malawoo
TTITLE2=Coumba Peul
TTITLE3=Ketukuba
TTITLE4=Dieguema
TTITLE5=Mario
TTITLE6=Viens Danser Sur Le Son Africando
TTITLE7=Fatalikou
TTITLE8=Sagoo
TTITLE9=Kër
TTITLE10=Nina Nina
EXTD=YEAR: 2006
EXTT0=
EXTT1=
EXTT2=
EXTT3=
EXTT4=
EXTT5=
EXTT6=
EXTT7=
EXTT8=
EXTT9=
EXTT10=
PLAYORDER=
